<svg xmlns="http://www.w3.org/2000/svg" viewBox="0 0 1024 1024">
  <defs>
    <clipPath id="heart">
      <path d="M448 112H656V160H768V208H848V272H912V336H944V544H896V608H848V672H784V736H720V800H656V864H576V928H448V864H368V800H304V736H240V672H176V608H128V544H80V336H128V272H192V208H272V160H384V112H448V176H560V112Z"/>
    </clipPath>
  </defs>
  <rect x="64" y="64" width="896" height="896" rx="192" fill="#fffdfa"/>
  <rect x="86" y="86" width="852" height="852" rx="168" fill="none" stroke="#d9dde4" stroke-width="26"/>
  <g clip-path="url(#heart)" stroke="#fffdfa" stroke-width="20" shape-rendering="crispEdges">
    <rect x="32" y="96" width="160" height="192" fill="#7fd7e6"/>
    <rect x="192" y="96" width="160" height="192" fill="#91bdf0"/>
    <rect x="352" y="96" width="160" height="192" fill="#b9aef0"/>
    <rect x="512" y="96" width="160" height="192" fill="#f5c27b"/>
    <rect x="672" y="96" width="160" height="192" fill="#ade6c8"/>
    <rect x="832" y="96" width="160" height="192" fill="#7fd7e6"/>
    <rect x="32" y="288" width="160" height="192" fill="#b9aef0"/>
    <rect x="192" y="288" width="160" height="192" fill="#e7a4cc"/>
    <rect x="352" y="288" width="160" height="192" fill="#f0a3a3"/>
    <rect x="512" y="288" width="160" height="192" fill="#f5c27b"/>
    <rect x="672" y="288" width="160" height="192" fill="#f5d45d"/>
    <rect x="832" y="288" width="160" height="192" fill="#ade6c8"/>
    <rect x="32" y="480" width="160" height="192" fill="#ade6c8"/>
    <rect x="192" y="480" width="160" height="192" fill="#7fd7e6"/>
    <rect x="352" y="480" width="160" height="192" fill="#91bdf0"/>
    <rect x="512" y="480" width="160" height="192" fill="#b9aef0"/>
    <rect x="672" y="480" width="160" height="192" fill="#e7a4cc"/>
    <rect x="832" y="480" width="160" height="192" fill="#f0a3a3"/>
    <rect x="96" y="672" width="192" height="160" fill="#91bdf0"/>
    <rect x="288" y="672" width="192" height="160" fill="#f0a3a3"/>
    <rect x="480" y="672" width="192" height="160" fill="#f5d45d"/>
    <rect x="672" y="672" width="192" height="160" fill="#ade6c8"/>
    <rect x="864" y="672" width="128" height="160" fill="#7fd7e6"/>
    <rect x="288" y="832" width="192" height="144" fill="#b9aef0"/>
    <rect x="480" y="832" width="192" height="144" fill="#e7a4cc"/>
    <rect x="672" y="832" width="192" height="144" fill="#f0a3a3"/>
  </g>
  <path d="M448 112H656V160H768V208H848V272H912V336H944V544H896V608H848V672H784V736H720V800H656V864H576V928H448V864H368V800H304V736H240V672H176V608H128V544H80V336H128V272H192V208H272V160H384V112H448V176H560V112Z" fill="none" stroke="#ff2437" stroke-width="30" stroke-linejoin="miter" shape-rendering="crispEdges"/>
</svg>
