<svg xmlns="http://www.w3.org/2000/svg" viewBox="0 0 64 64">
  <defs>
    <clipPath id="heart">
      <path d="M32 55C32 55 8 39.6 8 22.8C8 13.7 14.4 7.3 22.3 7.3C27.4 7.3 30.5 10.2 32 13.4C33.5 10.2 36.6 7.3 41.7 7.3C49.6 7.3 56 13.7 56 22.8C56 39.6 32 55 32 55Z"/>
    </clipPath>
  </defs>
  <rect x="3.5" y="3.5" width="57" height="57" rx="12" fill="#0a0a0b" stroke="#45464a" stroke-width="2"/>
  <g clip-path="url(#heart)" stroke="#0a0a0b" stroke-width="1.5">
    <rect x="5" y="5" width="14" height="15" fill="#22e07a"/>
    <rect x="19" y="5" width="14" height="15" fill="#f8fafc"/>
    <rect x="33" y="5" width="14" height="15" fill="#38bdf8"/>
    <rect x="47" y="5" width="12" height="15" fill="#e11d48"/>
    <rect x="5" y="20" width="11" height="12" fill="#f59e0b"/>
    <rect x="16" y="20" width="17" height="12" fill="#a78bfa"/>
    <rect x="33" y="20" width="14" height="12" fill="#22e07a"/>
    <rect x="47" y="20" width="12" height="12" fill="#f8fafc"/>
    <rect x="5" y="32" width="14" height="11" fill="#38bdf8"/>
    <rect x="19" y="32" width="14" height="11" fill="#e11d48"/>
    <rect x="33" y="32" width="17" height="11" fill="#f59e0b"/>
    <rect x="50" y="32" width="9" height="11" fill="#a78bfa"/>
    <rect x="12" y="43" width="12" height="10" fill="#f8fafc"/>
    <rect x="24" y="43" width="16" height="10" fill="#22e07a"/>
    <rect x="40" y="43" width="12" height="10" fill="#38bdf8"/>
    <rect x="23" y="53" width="18" height="8" fill="#e11d48"/>
  </g>
  <path d="M32 55C32 55 8 39.6 8 22.8C8 13.7 14.4 7.3 22.3 7.3C27.4 7.3 30.5 10.2 32 13.4C33.5 10.2 36.6 7.3 41.7 7.3C49.6 7.3 56 13.7 56 22.8C56 39.6 32 55 32 55Z" fill="none" stroke="#22e07a" stroke-width="3.2" stroke-linejoin="round"/>
</svg>
